<svg width="24" height="24" viewBox="0 0 24 24" fill="none" xmlns="http://www.w3.org/2000/svg">
<path d="M1 18.8788C2.9917 20.1417 5.35451 20.8735 7.88791 20.8735C15.0033 20.8735 20.7704 15.1049 20.7704 7.991C20.7704 7.81293 20.7674 7.63635 20.7599 7.46127C21.0173 7.25926 22.6094 5.98284 23 5.16281C23 5.16281 21.7071 5.70002 20.4427 5.82572C20.4397 5.82572 20.4367 5.82572 20.4352 5.82572C20.4352 5.82572 20.4382 5.82422 20.4412 5.82123C20.5579 5.74341 22.1875 4.63309 22.4074 3.31177C22.4074 3.31177 21.4931 3.7996 20.2137 4.22607C20.0012 4.2964 19.7798 4.36524 19.5508 4.42958C18.7263 3.5482 17.5531 2.99902 16.2513 2.99902C13.7538 2.99902 11.7306 5.02215 11.7306 7.51664C11.7306 7.86829 11.7711 8.21097 11.8474 8.54018C11.4987 8.52671 6.18351 8.22743 2.56822 3.85047C2.56822 3.85047 0.407427 6.79987 3.85662 9.83306C3.85662 9.83306 2.80764 9.79116 1.90382 9.25097C1.90382 9.25097 1.57162 12.8244 5.47721 13.7387C5.47721 13.7387 4.70956 14.029 3.48252 13.8224C3.48252 13.8224 4.16787 16.7105 7.63801 16.9798C7.63651 16.9813 4.89362 19.4594 1 18.8788Z" fill="#7C7792"/>
</svg>
